<svg width="32" height="32" viewBox="0 0 32 32" fill="none" xmlns="http://www.w3.org/2000/svg">
<g clip-path="url(#clip0_404_177)">
<path d="M5.36525 16.221C4.53235 16.221 3.8299 15.9367 3.2579 15.368C2.6859 14.7993 2.3999 14.1032 2.3999 13.2796C2.3999 12.456 2.68745 11.7614 3.26256 11.1958C3.83766 10.6302 4.54166 10.3474 5.37456 10.3474C6.20745 10.3474 6.9099 10.6317 7.4819 11.2004C8.0539 11.7691 8.3399 12.4652 8.3399 13.2888C8.3399 14.1124 8.05235 14.807 7.47725 15.3726C6.90215 15.9382 6.19815 16.221 5.36525 16.221ZM11.4703 10.6737C10.6374 10.6737 9.9349 10.3893 9.3629 9.82065C8.7909 9.25197 8.5049 8.55583 8.5049 7.73223C8.5049 6.90863 8.79245 6.21402 9.36756 5.64841C9.94266 5.08279 10.6467 4.79999 11.4796 4.79999C12.3125 4.79999 13.0149 5.08433 13.5869 5.65301C14.1589 6.22169 14.4449 6.91783 14.4449 7.74143C14.4449 8.56503 14.1574 9.25964 13.5823 9.82525C13.0071 10.3909 12.3031 10.6737 11.4703 10.6737ZM19.7203 10.6737C18.8874 10.6737 18.1849 10.3893 17.6129 9.82065C17.0409 9.25197 16.7549 8.55583 16.7549 7.73223C16.7549 6.90863 17.0425 6.21402 17.6176 5.64841C18.1927 5.08279 18.8967 4.79999 19.7296 4.79999C20.5625 4.79999 21.2649 5.08433 21.8369 5.65301C22.4089 6.22169 22.6949 6.91783 22.6949 7.74143C22.6949 8.56503 22.4074 9.25964 21.8323 9.82525C21.2571 10.3909 20.5531 10.6737 19.7203 10.6737ZM25.8253 16.221C24.9924 16.221 24.2899 15.9367 23.7179 15.368C23.1459 14.7993 22.8599 14.1032 22.8599 13.2796C22.8599 12.456 23.1475 11.7614 23.7226 11.1958C24.2977 10.6302 25.0017 10.3474 25.8346 10.3474C26.6675 10.3474 27.3699 10.6317 27.9419 11.2004C28.5139 11.7691 28.7999 12.4652 28.7999 13.2888C28.7999 14.1124 28.5124 14.807 27.9373 15.3726C27.3621 15.9382 26.6581 16.221 25.8253 16.221ZM8.5379 29.6C7.6139 29.6 6.8549 29.2571 6.2609 28.5712C5.6669 27.8854 5.3699 27.0753 5.3699 26.141C5.3699 25.2274 5.6504 24.417 6.2114 23.71C6.7724 23.003 7.3719 22.3231 8.0099 21.6705C8.4939 21.1919 8.9449 20.6861 9.3629 20.1531C9.7809 19.6202 10.1769 19.0709 10.5509 18.5052C11.1889 17.5481 11.9039 16.6561 12.6959 15.8295C13.4879 15.0028 14.4559 14.5895 15.5999 14.5895C16.7439 14.5895 17.7174 15.0028 18.5204 15.8295C19.3234 16.6561 20.0439 17.5589 20.6819 18.5379C21.0559 19.1035 21.4464 19.6474 21.8534 20.1695C22.2604 20.6916 22.7059 21.1919 23.1899 21.6705C23.8279 22.3231 24.4274 23.003 24.9884 23.71C25.5494 24.417 25.8299 25.2274 25.8299 26.141C25.8299 27.0753 25.5329 27.8854 24.9389 28.5712C24.3449 29.2571 23.5859 29.6 22.6619 29.6C21.4739 29.6 20.2969 29.5021 19.1309 29.3063C17.9649 29.1105 16.7879 29.0126 15.5999 29.0126C14.4119 29.0126 13.2349 29.1105 12.0689 29.3063C10.9029 29.5021 9.7259 29.6 8.5379 29.6Z" fill="url(#paint0_linear_404_177)"/>
</g>
<defs>
<linearGradient id="paint0_linear_404_177" x1="15.5999" y1="4.79999" x2="15.5999" y2="29.6" gradientUnits="userSpaceOnUse">
<stop stop-color="#B629F8"/>
<stop offset="1" stop-color="#800ADD"/>
</linearGradient>
<clipPath id="clip0_404_177">
<rect width="32" height="32" fill="white"/>
</clipPath>
</defs>
</svg>
