<svg width="219" height="57" viewBox="0 0 219 57" fill="none" xmlns="http://www.w3.org/2000/svg">
<path d="M13.3359 43.8359H4.64062V38.3516H13.3359C14.6797 38.3516 15.7734 38.1328 16.6172 37.6953C17.4609 37.2422 18.0781 36.6172 18.4688 35.8203C18.8594 35.0234 19.0547 34.125 19.0547 33.125C19.0547 32.1094 18.8594 31.1641 18.4688 30.2891C18.0781 29.4141 17.4609 28.7109 16.6172 28.1797C15.7734 27.6484 14.6797 27.3828 13.3359 27.3828H7.07812V56H0.046875V21.875H13.3359C16.0078 21.875 18.2969 22.3594 20.2031 23.3281C22.125 24.2812 23.5938 25.6016 24.6094 27.2891C25.625 28.9766 26.1328 30.9062 26.1328 33.0781C26.1328 35.2812 25.625 37.1875 24.6094 38.7969C23.5938 40.4062 22.125 41.6484 20.2031 42.5234C18.2969 43.3984 16.0078 43.8359 13.3359 43.8359Z" fill="#141414"/>
<path d="M41.9062 56.4688C39.9375 56.4688 38.1719 56.1562 36.6094 55.5312C35.0469 54.8906 33.7188 54.0078 32.625 52.8828C31.5469 51.7578 30.7188 50.4531 30.1406 48.9688C29.5625 47.4688 29.2734 45.875 29.2734 44.1875V43.25C29.2734 41.3281 29.5469 39.5703 30.0938 37.9766C30.6406 36.3828 31.4219 35 32.4375 33.8281C33.4688 32.6562 34.7188 31.7578 36.1875 31.1328C37.6562 30.4922 39.3125 30.1719 41.1562 30.1719C42.9531 30.1719 44.5469 30.4688 45.9375 31.0625C47.3281 31.6562 48.4922 32.5 49.4297 33.5938C50.3828 34.6875 51.1016 36 51.5859 37.5312C52.0703 39.0469 52.3125 40.7344 52.3125 42.5938V45.4062H32.1562V40.9062H45.6797V40.3906C45.6797 39.4531 45.5078 38.6172 45.1641 37.8828C44.8359 37.1328 44.3359 36.5391 43.6641 36.1016C42.9922 35.6641 42.1328 35.4453 41.0859 35.4453C40.1953 35.4453 39.4297 35.6406 38.7891 36.0312C38.1484 36.4219 37.625 36.9688 37.2188 37.6719C36.8281 38.375 36.5312 39.2031 36.3281 40.1562C36.1406 41.0938 36.0469 42.125 36.0469 43.25V44.1875C36.0469 45.2031 36.1875 46.1406 36.4688 47C36.7656 47.8594 37.1797 48.6016 37.7109 49.2266C38.2578 49.8516 38.9141 50.3359 39.6797 50.6797C40.4609 51.0234 41.3438 51.1953 42.3281 51.1953C43.5469 51.1953 44.6797 50.9609 45.7266 50.4922C46.7891 50.0078 47.7031 49.2812 48.4688 48.3125L51.75 51.875C51.2188 52.6406 50.4922 53.375 49.5703 54.0781C48.6641 54.7812 47.5703 55.3594 46.2891 55.8125C45.0078 56.25 43.5469 56.4688 41.9062 56.4688Z" fill="#141414"/>
<path d="M68.5781 30.6406V35.4219H53.8125V30.6406H68.5781ZM57.4688 24.3828H64.2188V48.3594C64.2188 49.0938 64.3125 49.6562 64.5 50.0469C64.7031 50.4375 65 50.7109 65.3906 50.8672C65.7812 51.0078 66.2734 51.0781 66.8672 51.0781C67.2891 51.0781 67.6641 51.0625 67.9922 51.0312C68.3359 50.9844 68.625 50.9375 68.8594 50.8906L68.8828 55.8594C68.3047 56.0469 67.6797 56.1953 67.0078 56.3047C66.3359 56.4141 65.5938 56.4688 64.7812 56.4688C63.2969 56.4688 62 56.2266 60.8906 55.7422C59.7969 55.2422 58.9531 54.4453 58.3594 53.3516C57.7656 52.2578 57.4688 50.8203 57.4688 49.0391V24.3828Z" fill="#141414"/>
<path d="M142.594 50.5156V56H125.414V50.5156H142.594ZM127.688 21.875V56H120.656V21.875H127.688Z" fill="#141414"/>
<path d="M145.125 43.5781V43.0859C145.125 41.2266 145.391 39.5156 145.922 37.9531C146.453 36.375 147.227 35.0078 148.242 33.8516C149.258 32.6953 150.508 31.7969 151.992 31.1562C153.477 30.5 155.18 30.1719 157.102 30.1719C159.023 30.1719 160.734 30.5 162.234 31.1562C163.734 31.7969 164.992 32.6953 166.008 33.8516C167.039 35.0078 167.82 36.375 168.352 37.9531C168.883 39.5156 169.148 41.2266 169.148 43.0859V43.5781C169.148 45.4219 168.883 47.1328 168.352 48.7109C167.82 50.2734 167.039 51.6406 166.008 52.8125C164.992 53.9688 163.742 54.8672 162.258 55.5078C160.773 56.1484 159.07 56.4688 157.148 56.4688C155.227 56.4688 153.516 56.1484 152.016 55.5078C150.531 54.8672 149.273 53.9688 148.242 52.8125C147.227 51.6406 146.453 50.2734 145.922 48.7109C145.391 47.1328 145.125 45.4219 145.125 43.5781ZM151.875 43.0859V43.5781C151.875 44.6406 151.969 45.6328 152.156 46.5547C152.344 47.4766 152.641 48.2891 153.047 48.9922C153.469 49.6797 154.016 50.2188 154.688 50.6094C155.359 51 156.18 51.1953 157.148 51.1953C158.086 51.1953 158.891 51 159.562 50.6094C160.234 50.2188 160.773 49.6797 161.18 48.9922C161.586 48.2891 161.883 47.4766 162.07 46.5547C162.273 45.6328 162.375 44.6406 162.375 43.5781V43.0859C162.375 42.0547 162.273 41.0859 162.07 40.1797C161.883 39.2578 161.578 38.4453 161.156 37.7422C160.75 37.0234 160.211 36.4609 159.539 36.0547C158.867 35.6484 158.055 35.4453 157.102 35.4453C156.148 35.4453 155.336 35.6484 154.664 36.0547C154.008 36.4609 153.469 37.0234 153.047 37.7422C152.641 38.4453 152.344 39.2578 152.156 40.1797C151.969 41.0859 151.875 42.0547 151.875 43.0859Z" fill="#141414"/>
<path d="M181.547 51.0781L187.172 30.6406H194.227L185.672 56H181.406L181.547 51.0781ZM177.68 30.6406L183.328 51.1016L183.445 56H179.156L170.602 30.6406H177.68Z" fill="#141414"/>
<path d="M208.594 56.4688C206.625 56.4688 204.859 56.1562 203.297 55.5312C201.734 54.8906 200.406 54.0078 199.312 52.8828C198.234 51.7578 197.406 50.4531 196.828 48.9688C196.25 47.4688 195.961 45.875 195.961 44.1875V43.25C195.961 41.3281 196.234 39.5703 196.781 37.9766C197.328 36.3828 198.109 35 199.125 33.8281C200.156 32.6562 201.406 31.7578 202.875 31.1328C204.344 30.4922 206 30.1719 207.844 30.1719C209.641 30.1719 211.234 30.4688 212.625 31.0625C214.016 31.6562 215.18 32.5 216.117 33.5938C217.07 34.6875 217.789 36 218.273 37.5312C218.758 39.0469 219 40.7344 219 42.5938V45.4062H198.844V40.9062H212.367V40.3906C212.367 39.4531 212.195 38.6172 211.852 37.8828C211.523 37.1328 211.023 36.5391 210.352 36.1016C209.68 35.6641 208.82 35.4453 207.773 35.4453C206.883 35.4453 206.117 35.6406 205.477 36.0312C204.836 36.4219 204.312 36.9688 203.906 37.6719C203.516 38.375 203.219 39.2031 203.016 40.1562C202.828 41.0938 202.734 42.125 202.734 43.25V44.1875C202.734 45.2031 202.875 46.1406 203.156 47C203.453 47.8594 203.867 48.6016 204.398 49.2266C204.945 49.8516 205.602 50.3359 206.367 50.6797C207.148 51.0234 208.031 51.1953 209.016 51.1953C210.234 51.1953 211.367 50.9609 212.414 50.4922C213.477 50.0078 214.391 49.2812 215.156 48.3125L218.438 51.875C217.906 52.6406 217.18 53.375 216.258 54.0781C215.352 54.7812 214.258 55.3594 212.977 55.8125C211.695 56.25 210.234 56.4688 208.594 56.4688Z" fill="#141414"/>
<path d="M80.7067 20.2763C79.6656 20.2763 78.7875 19.9209 78.0725 19.21C77.3575 18.4992 77 17.629 77 16.5995C77 15.57 77.3594 14.7018 78.0783 13.9947C78.7972 13.2877 79.6772 12.9342 80.7183 12.9342C81.7594 12.9342 82.6375 13.2896 83.3525 14.0005C84.0675 14.7113 84.425 15.5815 84.425 16.611C84.425 17.6405 84.0656 18.5088 83.3467 19.2158C82.6278 19.9228 81.7478 20.2763 80.7067 20.2763ZM88.3379 13.3421C87.2968 13.3421 86.4188 12.9867 85.7038 12.2758C84.9888 11.565 84.6313 10.6948 84.6313 9.6653C84.6313 8.6358 84.9907 7.76754 85.7096 7.06053C86.4284 6.35351 87.3084 6 88.3496 6C89.3907 6 90.2688 6.35543 90.9838 7.06628C91.6988 7.77713 92.0563 8.6473 92.0563 9.6768C92.0563 10.7063 91.6968 11.5746 90.9779 12.2816C90.2591 12.9886 89.3791 13.3421 88.3379 13.3421ZM98.6504 13.3421C97.6093 13.3421 96.7313 12.9867 96.0163 12.2758C95.3013 11.565 94.9438 10.6948 94.9438 9.6653C94.9438 8.6358 95.3032 7.76754 96.0221 7.06053C96.7409 6.35351 97.6209 6 98.6621 6C99.7032 6 100.581 6.35543 101.296 7.06628C102.011 7.77713 102.369 8.6473 102.369 9.6768C102.369 10.7063 102.009 11.5746 101.29 12.2816C100.572 12.9886 99.6916 13.3421 98.6504 13.3421ZM106.282 20.2763C105.241 20.2763 104.363 19.9209 103.648 19.21C102.933 18.4992 102.575 17.629 102.575 16.5995C102.575 15.57 102.934 14.7018 103.653 13.9947C104.372 13.2877 105.252 12.9342 106.293 12.9342C107.334 12.9342 108.213 13.2896 108.928 14.0005C109.643 14.7113 110 15.5815 110 16.611C110 17.6405 109.641 18.5088 108.922 19.2158C108.203 19.9228 107.323 20.2763 106.282 20.2763ZM84.6725 37C83.5175 37 82.5688 36.5714 81.8263 35.7141C81.0838 34.8568 80.7125 33.8442 80.7125 32.6763C80.7125 31.5342 81.0631 30.5213 81.7644 29.6375C82.4656 28.7537 83.215 27.9039 84.0125 27.0882C84.6175 26.4899 85.1813 25.8577 85.7038 25.1914C86.2263 24.5252 86.7213 23.8386 87.1888 23.1316C87.9863 21.9351 88.88 20.8202 89.87 19.7868C90.86 18.7535 92.07 18.2368 93.5 18.2368C94.93 18.2368 96.1469 18.7535 97.1506 19.7868C98.1544 20.8202 99.055 21.9487 99.8525 23.1724C100.32 23.8794 100.808 24.5592 101.317 25.2118C101.826 25.8645 102.383 26.4899 102.988 27.0882C103.785 27.9039 104.534 28.7537 105.236 29.6375C105.937 30.5213 106.288 31.5342 106.288 32.6763C106.288 33.8442 105.916 34.8568 105.174 35.7141C104.431 36.5714 103.483 37 102.328 37C100.843 37 99.3713 36.8776 97.9138 36.6329C96.4563 36.3882 94.985 36.2658 93.5 36.2658C92.015 36.2658 90.5438 36.3882 89.0863 36.6329C87.6288 36.8776 86.1575 37 84.6725 37Z" fill="url(#paint0_linear_403_121)"/>
<defs>
<linearGradient id="paint0_linear_403_121" x1="93.5" y1="6" x2="93.5" y2="37" gradientUnits="userSpaceOnUse">
<stop stop-color="#B629F8"/>
<stop offset="1" stop-color="#800ADD"/>
</linearGradient>
</defs>
</svg>
